<!-- 
 -->
 <svg version="1.1" id="Layer_1" xmlns="http://www.w3.org/2000/svg" xmlns:xlink="http://www.w3.org/1999/xlink" x="0px" y="0px"
	 width="100%" viewBox="0 0 512 512" enable-background="new 0 0 512 512" xml:space="preserve">
<path fill="#FFFFFF" opacity="1.000000" stroke="none" 
	d="
M478.000000,513.000000 
	C318.705414,513.000000 159.910828,513.000000 1.058124,513.000000 
	C1.058124,342.413727 1.058124,171.827454 1.058124,1.120578 
	C171.544556,1.120578 342.089233,1.120578 512.816956,1.120578 
	C512.816956,171.666489 512.816956,342.333252 512.816956,513.000000 
	C501.494049,513.000000 489.997040,513.000000 478.000000,513.000000 
M220.850494,283.987274 
	C220.850494,283.987274 221.136169,283.864258 221.625580,283.989777 
	C221.797180,283.741760 221.968765,283.493774 222.421219,282.312347 
	C222.555878,274.283752 222.690552,266.255157 223.079819,258.157196 
	C223.189636,257.869537 223.137253,257.625671 223.582870,256.715271 
	C224.051743,255.868774 224.520615,255.022293 225.358231,254.065201 
	C225.581085,253.770676 225.803925,253.476151 226.865967,252.857086 
	C227.404083,252.602310 227.942215,252.347519 228.523849,251.953552 
	C228.523849,251.953552 228.290100,252.012665 229.203796,251.832001 
	C236.667648,251.425095 239.343033,253.638367 239.567459,261.094757 
	C239.795486,268.670776 239.617844,276.259003 239.617844,283.684265 
	C243.539948,283.684265 246.763428,283.684265 250.059570,283.684265 
	C250.059570,274.175964 250.330688,265.018311 249.974792,255.885071 
	C249.684189,248.427567 243.700577,243.121338 236.374664,242.851578 
	C230.797241,242.646194 226.016617,244.114777 222.741455,249.427414 
	C221.467590,243.835892 220.593231,243.468979 211.887207,244.424637 
	C211.887207,257.513733 211.887207,270.623444 211.887207,283.885803 
	C214.889008,283.885803 217.697266,283.885803 220.570450,284.140717 
	C220.570450,284.140717 220.496155,284.260651 220.496155,284.260651 
	C220.496155,284.260651 220.556976,283.884369 220.850494,283.987274 
M109.312691,242.116547 
	C106.795738,243.632675 104.054337,245.095230 108.225815,248.661621 
	C109.641380,249.334656 111.056938,250.007690 112.620598,250.751144 
	C113.144341,251.864151 113.908752,253.488617 114.721413,255.753281 
	C117.426254,258.189240 119.776276,261.357635 122.922760,262.881989 
	C127.176720,264.942871 132.161774,265.443878 136.588882,267.222260 
	C138.449310,267.969604 140.806946,270.169708 140.964767,271.890381 
	C141.268890,275.206482 138.405487,276.594727 135.283066,276.769012 
	C132.469849,276.926025 129.646912,276.908661 126.298965,276.581116 
	C123.206680,270.499817 118.447235,268.867249 112.135887,271.140198 
	C114.333939,280.679321 118.265144,284.055756 129.911484,285.975372 
	C136.356796,286.455444 142.481323,285.765228 147.814758,281.576202 
	C154.886459,276.021912 155.467010,265.423370 148.422653,260.216736 
	C145.490814,258.049744 141.546417,257.184875 137.982635,255.960129 
	C134.552750,254.781387 130.913956,254.153534 127.591026,252.752274 
	C126.464378,252.277191 125.453621,250.185776 125.443207,248.824905 
	C125.434708,247.714127 127.034653,245.607361 127.851967,245.640793 
	C131.819397,245.803085 137.310822,245.113007 139.389053,247.370300 
	C143.534653,251.873077 147.629440,251.076675 152.866013,250.586136 
	C152.534805,248.385193 152.253967,246.518967 152.696426,244.827347 
	C157.052261,242.716537 154.674316,240.359100 152.771683,238.316010 
	C147.415283,232.564072 140.534821,230.675110 132.535217,230.262070 
	C126.010033,227.347824 115.398430,232.022095 112.266876,239.071350 
	C111.516678,240.049149 110.766472,241.026947 109.312691,242.116547 
M178.649796,241.011368 
	C177.758041,241.308929 176.866272,241.606491 175.407394,242.169159 
	C174.998154,242.236786 174.588928,242.304413 173.883652,241.824722 
	C173.252243,242.220215 172.620850,242.615707 171.742950,243.212524 
	C171.742950,243.212524 171.427719,243.256363 170.634674,243.112839 
	C168.033401,244.676880 164.828690,245.719894 162.944046,247.902664 
	C157.290451,254.450638 154.648392,267.405518 162.198944,277.701599 
	C167.304810,284.664001 173.727875,286.148407 181.087738,286.847137 
	C182.340973,286.966125 183.726044,285.696228 185.742767,284.776489 
	C195.137146,282.505341 201.794800,276.936096 203.058502,267.254333 
	C204.312561,257.646576 202.114899,248.773071 192.350784,244.012665 
	C192.350784,244.012665 192.425354,243.994980 191.179230,243.532852 
	C190.812164,243.284790 190.445114,243.036728 190.107971,242.931839 
	C190.107971,242.931839 190.266052,242.952515 189.498795,242.748337 
	C188.982346,242.656769 188.465881,242.565216 187.314316,242.042450 
	C184.671158,241.759537 182.027985,241.476608 178.649796,241.011368 
M283.273376,281.564270 
	C284.144531,282.393707 284.939026,283.813599 285.901611,283.938538 
	C288.478638,284.273132 291.127686,284.052612 294.191589,284.052612 
	C294.191589,273.175751 294.191589,262.754608 294.191589,252.188934 
	C297.021088,251.939072 299.417633,251.727448 301.610443,251.533813 
	C301.610443,248.734528 301.610443,246.352539 301.610443,244.029510 
	C298.917206,243.761703 296.666656,243.537918 294.462646,243.318771 
	C293.424316,236.392624 298.172272,236.227997 302.467529,235.803375 
	C302.467529,233.158752 302.467529,230.765091 302.467529,228.450653 
	C289.041626,226.065506 284.509827,229.500381 282.677124,243.300674 
	C281.151367,243.483368 279.572876,243.672379 278.035767,243.856430 
	C278.035767,246.675613 278.035767,249.224731 278.035767,251.433289 
	C280.184021,251.985428 281.880859,252.421539 283.427032,253.799210 
	C283.465118,262.839569 283.503204,271.879913 283.273376,281.564270 
M376.935822,289.945038 
	C374.662781,290.071014 372.389740,290.196960 369.984558,290.330231 
	C369.984558,292.939758 369.984558,295.348907 369.984558,297.692230 
	C382.169952,300.359100 387.590179,297.488983 391.852661,286.138885 
	C395.004517,277.746338 398.071045,269.320618 401.071808,260.872833 
	C402.993500,255.462769 404.726196,249.985580 406.688293,244.104935 
	C402.837830,244.104935 399.746674,244.104935 396.401611,244.104935 
	C393.367004,253.272400 390.334137,262.434723 387.301239,271.597015 
	C386.914429,271.612366 386.527588,271.627686 386.140778,271.643005 
	C383.071777,262.461273 380.002777,253.279572 376.957428,244.168610 
	C373.207703,244.168610 369.751617,244.168610 366.004883,244.168610 
	C366.294037,245.351364 366.431549,246.312088 366.761230,247.201569 
	C370.909180,258.393707 374.920197,269.641357 379.347443,280.722534 
	C380.796631,284.349701 380.621368,287.066772 376.935822,289.945038 
M327.484497,243.868866 
	C327.092957,244.567444 326.184875,245.606812 326.387238,245.913544 
	C329.487152,250.612000 332.462280,255.438004 336.038849,259.760712 
	C338.374573,262.583801 338.546967,264.262207 336.113342,267.208069 
	C331.962921,272.232117 328.495178,277.820099 324.687561,283.246796 
	C332.447388,285.677887 337.317932,283.494476 340.235443,276.771973 
	C341.132111,274.705902 342.687439,272.925690 344.182159,270.647247 
	C350.107513,276.400360 351.626007,288.583252 364.383667,283.109894 
	C360.878113,277.967987 357.422394,272.562378 353.602173,267.427948 
	C351.468536,264.560303 351.462006,262.259430 353.504761,259.388580 
	C356.972473,254.515076 360.142487,249.429749 363.437622,244.433441 
	C363.169647,243.985489 362.901703,243.537537 362.633759,243.089584 
	C358.962006,243.971695 354.635956,243.942444 351.795135,245.981934 
	C348.705231,248.200256 346.994995,252.340363 344.425964,256.010040 
	C340.041534,249.837036 337.948456,241.472885 327.484497,243.868866 
M259.874664,253.745972 
	C259.874664,263.708527 259.874664,273.671082 259.874664,283.820984 
	C263.390289,283.820984 266.672943,283.820984 270.220581,283.820984 
	C270.220581,270.601929 270.220581,257.523590 270.220581,244.194366 
	C266.698914,244.194366 263.460419,244.194366 259.877563,244.194366 
	C259.877563,247.218292 259.877563,250.019196 259.874664,253.745972 
M319.057892,265.499237 
	C319.057892,258.396301 319.057892,251.293350 319.057892,244.023712 
	C315.171295,244.023712 311.914093,244.023712 308.358276,244.023712 
	C308.358276,257.366150 308.358276,270.414734 308.358276,283.699585 
	C311.934479,283.699585 315.302490,283.699585 319.061157,283.699585 
	C319.061157,277.754913 319.061157,272.126801 319.057892,265.499237 
M270.064423,228.712036 
	C266.779022,228.444794 263.493652,228.177551 260.057129,227.898010 
	C260.057129,231.940903 260.057129,235.004517 260.057129,238.512421 
	C263.573517,238.357254 266.782227,238.215668 270.402405,238.055923 
	C270.402405,234.917572 270.402405,232.167953 270.064423,228.712036 
M313.547363,227.809418 
	C309.399506,227.575989 307.814941,229.900101 308.006012,233.655655 
	C308.156586,236.614777 309.441223,238.750473 312.878906,238.662186 
	C316.037537,238.581085 318.974091,238.262497 319.246643,234.102859 
	C319.484558,230.471313 318.651001,227.772522 313.547363,227.809418 
z"/>
<path fill="#1E3799" opacity="1.000000" stroke="none" 
	d="
M377.331177,289.773560 
	C380.621368,287.066772 380.796631,284.349701 379.347443,280.722534 
	C374.920197,269.641357 370.909180,258.393707 366.761230,247.201569 
	C366.431549,246.312088 366.294037,245.351364 366.004883,244.168610 
	C369.751617,244.168610 373.207703,244.168610 376.957428,244.168610 
	C380.002777,253.279572 383.071777,262.461273 386.140778,271.643005 
	C386.527588,271.627686 386.914429,271.612366 387.301239,271.597015 
	C390.334137,262.434723 393.367004,253.272400 396.401611,244.104935 
	C399.746674,244.104935 402.837830,244.104935 406.688293,244.104935 
	C404.726196,249.985580 402.993500,255.462769 401.071808,260.872833 
	C398.071045,269.320618 395.004517,277.746338 391.852661,286.138885 
	C387.590179,297.488983 382.169952,300.359100 369.984558,297.692230 
	C369.984558,295.348907 369.984558,292.939758 369.984558,290.330231 
	C372.389740,290.196960 374.662781,290.071014 377.331177,289.773560 
z"/>
<path fill="#930CC5" opacity="1.000000" stroke="none" 
	d="
M126.828255,276.968201 
	C129.646912,276.908661 132.469849,276.926025 135.283066,276.769012 
	C138.405487,276.594727 141.268890,275.206482 140.964767,271.890381 
	C140.806946,270.169708 138.449310,267.969604 136.588882,267.222260 
	C132.161774,265.443878 127.176720,264.942871 122.922760,262.881989 
	C119.776276,261.357635 117.426254,258.189240 114.836380,255.055618 
	C115.393158,250.868637 114.876404,246.848221 116.459373,243.991165 
	C120.923637,235.933716 129.149582,235.216080 136.880188,236.762039 
	C142.098358,237.805588 146.794312,241.460541 151.826172,243.987747 
	C152.076538,244.234924 152.091415,244.443115 151.973129,244.652725 
	C152.253967,246.518967 152.534805,248.385193 152.866013,250.586136 
	C147.629440,251.076675 143.534653,251.873077 139.389053,247.370300 
	C137.310822,245.113007 131.819397,245.803085 127.851967,245.640793 
	C127.034653,245.607361 125.434708,247.714127 125.443207,248.824905 
	C125.453621,250.185776 126.464378,252.277191 127.591026,252.752274 
	C130.913956,254.153534 134.552750,254.781387 137.982635,255.960129 
	C141.546417,257.184875 145.490814,258.049744 148.422653,260.216736 
	C155.467010,265.423370 154.886459,276.021912 147.814758,281.576202 
	C142.481323,285.765228 136.356796,286.455444 129.281540,285.575195 
	C126.836761,282.707611 122.003731,280.910736 126.828255,276.968201 
z"/>
<path fill="#170A65" opacity="1.000000" stroke="none" 
	d="
M220.505524,283.885803 
	C217.697266,283.885803 214.889008,283.885803 211.887207,283.885803 
	C211.887207,270.623444 211.887207,257.513733 211.887207,244.424637 
	C220.593231,243.468979 221.467590,243.835892 222.741455,249.427414 
	C226.016617,244.114777 230.797241,242.646194 236.374664,242.851578 
	C243.700577,243.121338 249.684189,248.427567 249.974792,255.885071 
	C250.330688,265.018311 250.059570,274.175964 250.059570,283.684265 
	C246.763428,283.684265 243.539948,283.684265 239.617844,283.684265 
	C239.617844,276.259003 239.795486,268.670776 239.567459,261.094757 
	C239.343033,253.638367 236.667648,251.425095 228.782684,251.933212 
	C228.361588,252.034424 228.480347,252.092743 228.480347,252.092743 
	C227.942215,252.347519 227.404083,252.602310 226.236588,253.011337 
	C225.401291,253.502319 225.195389,253.839066 224.989487,254.175797 
	C224.520615,255.022293 224.051743,255.868774 223.184982,257.153137 
	C222.714233,257.812256 222.726929,258.024109 222.825211,258.226562 
	C222.690552,266.255157 222.555878,274.283752 222.065369,282.780823 
	C221.429504,283.371368 221.238388,283.576355 221.136169,283.864258 
	C221.136169,283.864258 220.850494,283.987274 220.691040,283.911560 
	C220.531601,283.835846 220.505524,283.885803 220.505524,283.885803 
z"/>
<path fill="#1E3799" opacity="1.000000" stroke="none" 
	d="
M327.835144,243.878876 
	C337.948456,241.472885 340.041534,249.837036 344.425964,256.010040 
	C346.994995,252.340363 348.705231,248.200256 351.795135,245.981934 
	C354.635956,243.942444 358.962006,243.971695 362.633759,243.089584 
	C362.901703,243.537537 363.169647,243.985489 363.437622,244.433441 
	C360.142487,249.429749 356.972473,254.515076 353.504761,259.388580 
	C351.462006,262.259430 351.468536,264.560303 353.602173,267.427948 
	C357.422394,272.562378 360.878113,277.967987 364.383667,283.109894 
	C351.626007,288.583252 350.107513,276.400360 344.182159,270.647247 
	C342.687439,272.925690 341.132111,274.705902 340.235443,276.771973 
	C337.317932,283.494476 332.447388,285.677887 324.687561,283.246796 
	C328.495178,277.820099 331.962921,272.232117 336.113342,267.208069 
	C338.546967,264.262207 338.374573,262.583801 336.038849,259.760712 
	C332.462280,255.438004 329.487152,250.612000 326.387238,245.913544 
	C326.184875,245.606812 327.092957,244.567444 327.835144,243.878876 
z"/>
<path fill="#1E3799" opacity="1.000000" stroke="none" 
	d="
M283.577667,252.857651 
	C281.880859,252.421539 280.184021,251.985428 278.035767,251.433289 
	C278.035767,249.224731 278.035767,246.675613 278.035767,243.856430 
	C279.572876,243.672379 281.151367,243.483368 282.677124,243.300674 
	C284.509827,229.500381 289.041626,226.065506 302.467529,228.450653 
	C302.467529,230.765091 302.467529,233.158752 302.467529,235.803375 
	C298.172272,236.227997 293.424316,236.392624 294.462646,243.318771 
	C296.666656,243.537918 298.917206,243.761703 301.610443,244.029510 
	C301.610443,246.352539 301.610443,248.734528 301.610443,251.533813 
	C299.417633,251.727448 297.021088,251.939072 294.191589,252.188934 
	C294.191589,262.754608 294.191589,273.175751 294.191589,284.052612 
	C291.127686,284.052612 288.478638,284.273132 285.901611,283.938538 
	C284.939026,283.813599 284.144531,282.393707 283.748047,281.093933 
	C284.457397,271.138214 284.692078,261.652832 284.926727,252.167480 
	C284.477051,252.397537 284.027344,252.627594 283.577667,252.857651 
z"/>
<path fill="#170A65" opacity="1.000000" stroke="none" 
	d="
M259.876099,253.283020 
	C259.877563,250.019196 259.877563,247.218292 259.877563,244.194366 
	C263.460419,244.194366 266.698914,244.194366 270.220581,244.194366 
	C270.220581,257.523590 270.220581,270.601929 270.220581,283.820984 
	C266.672943,283.820984 263.390289,283.820984 259.874664,283.820984 
	C259.874664,273.671082 259.874664,263.708527 259.876099,253.283020 
z"/>
<path fill="#1E3799" opacity="1.000000" stroke="none" 
	d="
M319.059509,265.998962 
	C319.061157,272.126801 319.061157,277.754913 319.061157,283.699585 
	C315.302490,283.699585 311.934479,283.699585 308.358276,283.699585 
	C308.358276,270.414734 308.358276,257.366150 308.358276,244.023712 
	C311.914093,244.023712 315.171295,244.023712 319.057892,244.023712 
	C319.057892,251.293350 319.057892,258.396301 319.059509,265.998962 
z"/>
<path fill="#170A65" opacity="1.000000" stroke="none" 
	d="
M192.226425,243.917450 
	C202.114899,248.773071 204.312561,257.646576 203.058502,267.254333 
	C201.794800,276.936096 195.137146,282.505341 184.987488,284.841431 
	C182.581863,284.836243 180.931503,284.766113 179.561737,284.524231 
	C181.721924,283.960449 183.601532,283.568481 185.481125,283.176483 
	C185.716919,282.699249 185.952698,282.222046 186.188477,281.744812 
	C184.190247,279.939789 182.192017,278.134735 180.590759,276.266785 
	C187.582520,275.706299 191.085068,273.019592 193.116425,267.346436 
	C195.541382,260.574005 193.055725,255.575790 188.003128,251.125488 
	C189.283798,249.368774 190.376205,247.913895 191.004547,247.077057 
	C189.772751,245.221008 188.861099,243.847336 187.949432,242.473663 
	C188.465881,242.565216 188.982346,242.656769 189.863708,242.809052 
	C190.228607,242.869766 190.078064,242.788651 190.078064,242.788651 
	C190.445114,243.036728 190.812164,243.284790 191.779480,243.732971 
	C192.379745,243.933075 192.226425,243.917450 192.226425,243.917450 
z"/>
<path fill="#11B2ED" opacity="1.000000" stroke="none" 
	d="
M171.427719,243.256363 
	C171.427719,243.256363 171.742950,243.212524 172.133026,243.176331 
	C172.701569,243.180176 172.880035,243.220245 173.341095,243.495850 
	C175.415863,243.891251 177.208023,244.051102 179.401550,244.246735 
	C178.951721,246.333664 178.546646,248.212921 177.836212,250.273193 
	C168.359741,255.089142 166.145248,261.697174 170.537842,271.242371 
	C170.031601,272.338867 169.632782,273.049530 169.325989,273.797882 
	C167.541153,278.151672 165.631866,278.289764 163.471237,274.039459 
	C163.316223,273.734497 162.632278,273.698425 161.851440,273.282471 
	C157.362823,260.247772 159.850327,252.781738 171.427719,243.256363 
z"/>
<path fill="#D1E9F8" opacity="1.000000" stroke="none" 
	d="
M151.723862,243.947372 
	C146.794312,241.460541 142.098358,237.805588 136.880188,236.762039 
	C129.149582,235.216080 120.923637,235.933716 116.459373,243.991165 
	C114.876404,246.848221 115.393158,250.868637 114.812256,254.735504 
	C113.908752,253.488617 113.144341,251.864151 112.620598,250.751144 
	C111.056938,250.007690 109.641380,249.334656 108.089561,248.355713 
	C107.953308,248.049789 108.028259,247.975159 108.413422,248.051636 
	C109.649910,247.817627 110.910271,247.759521 111.283783,247.154175 
	C113.189835,244.065125 114.866760,240.834702 116.791420,237.350403 
	C115.350616,238.017059 114.216980,238.541595 113.040031,239.026627 
	C112.996712,238.987137 112.912437,238.905640 112.912437,238.905640 
	C115.398430,232.022095 126.010033,227.347824 132.323486,230.664658 
	C131.416519,231.691818 130.721268,232.316376 130.026016,232.940918 
	C131.165161,233.273529 132.310471,233.912903 133.442459,233.890076 
	C142.277771,233.711929 148.739685,237.210999 151.723862,243.947372 
z"/>
<path fill="#1E3799" opacity="1.000000" stroke="none" 
	d="
M126.563614,276.774658 
	C122.003731,280.910736 126.836761,282.707611 128.837067,285.467896 
	C118.265144,284.055756 114.333939,280.679321 112.135887,271.140198 
	C118.447235,268.867249 123.206680,270.499817 126.563614,276.774658 
z"/>
<path fill="#D1E9F8" opacity="1.000000" stroke="none" 
	d="
M171.031189,243.184601 
	C159.850327,252.781738 157.362823,260.247772 161.926300,273.551361 
	C165.928787,280.901978 171.784698,284.107086 179.281143,284.695984 
	C180.931503,284.766113 182.581863,284.836243 184.641205,284.987183 
	C183.726044,285.696228 182.340973,286.966125 181.087738,286.847137 
	C173.727875,286.148407 167.304810,284.664001 162.198944,277.701599 
	C154.648392,267.405518 157.290451,254.450638 162.944046,247.902664 
	C164.828690,245.719894 168.033401,244.676880 171.031189,243.184601 
z"/>
<path fill="#930CC5" opacity="1.000000" stroke="none" 
	d="
M270.233398,229.065186 
	C270.402405,232.167953 270.402405,234.917572 270.402405,238.055923 
	C266.782227,238.215668 263.573517,238.357254 260.057129,238.512421 
	C260.057129,235.004517 260.057129,231.940903 260.057129,227.898010 
	C263.493652,228.177551 266.779022,228.444794 270.233398,229.065186 
z"/>
<path fill="#DB2E1D" opacity="1.000000" stroke="none" 
	d="
M313.911865,227.825333 
	C318.651001,227.772522 319.484558,230.471313 319.246643,234.102859 
	C318.974091,238.262497 316.037537,238.581085 312.878906,238.662186 
	C309.441223,238.750473 308.156586,236.614777 308.006012,233.655655 
	C307.814941,229.900101 309.399506,227.575989 313.911865,227.825333 
z"/>
<path fill="#1E3799" opacity="1.000000" stroke="none" 
	d="
M178.141586,250.092163 
	C178.546646,248.212921 178.951721,246.333664 179.401550,244.246735 
	C177.208023,244.051102 175.415863,243.891251 173.562775,243.385132 
	C173.857910,242.948822 174.083847,242.726547 174.179688,242.372040 
	C174.588928,242.304413 174.998154,242.236786 176.045197,242.109497 
	C177.583588,241.764450 178.484207,241.479065 179.384827,241.193695 
	C182.027985,241.476608 184.671158,241.759537 187.631882,242.258057 
	C188.861099,243.847336 189.772751,245.221008 191.004547,247.077057 
	C190.376205,247.913895 189.283798,249.368774 187.600983,251.041855 
	C184.054260,250.870773 181.097916,250.481476 178.141586,250.092163 
z"/>
<path fill="#170A65" opacity="1.000000" stroke="none" 
	d="
M151.826172,243.987747 
	C148.739685,237.210999 142.277771,233.711929 133.442459,233.890076 
	C132.310471,233.912903 131.165161,233.273529 130.026016,232.940918 
	C130.721268,232.316376 131.416519,231.691818 132.509003,230.978363 
	C140.534821,230.675110 147.415283,232.564072 152.771683,238.316010 
	C154.674316,240.359100 157.052261,242.716537 152.334778,244.740036 
	C152.091415,244.443115 152.076538,244.234924 151.826172,243.987747 
z"/>
<path fill="#170A65" opacity="1.000000" stroke="none" 
	d="
M283.502350,253.328430 
	C284.027344,252.627594 284.477051,252.397537 284.926727,252.167480 
	C284.692078,261.652832 284.457397,271.138214 283.881989,280.771912 
	C283.503204,271.879913 283.465118,262.839569 283.502350,253.328430 
z"/>
<path fill="#D1E9F8" opacity="1.000000" stroke="none" 
	d="
M107.916023,248.087296 
	C104.054337,245.095230 106.795738,243.632675 109.755989,242.156433 
	C110.199287,242.196320 110.385811,242.384460 110.279221,242.712952 
	C109.457840,244.686020 108.743050,246.330582 108.028259,247.975159 
	C108.028259,247.975159 107.953308,248.049789 107.916023,248.087296 
z"/>
<path fill="#D1E9F8" opacity="1.000000" stroke="none" 
	d="
M110.107780,242.100525 
	C110.766472,241.026947 111.516678,240.049149 112.589661,238.988495 
	C112.912437,238.905640 112.996712,238.987137 113.012527,239.355164 
	C112.147491,240.610291 111.266647,241.497375 110.385811,242.384460 
	C110.385811,242.384460 110.199287,242.196320 110.107780,242.100525 
z"/>
<path fill="#D1E9F8" opacity="1.000000" stroke="none" 
	d="
M174.031677,242.098389 
	C174.083847,242.726547 173.857910,242.948822 173.280197,243.149582 
	C172.880035,243.220245 172.701569,243.180176 172.256287,243.075653 
	C172.620850,242.615707 173.252243,242.220215 174.031677,242.098389 
z"/>
<path fill="#D1E9F8" opacity="1.000000" stroke="none" 
	d="
M179.017303,241.102539 
	C178.484207,241.479065 177.583588,241.764450 176.328751,241.976944 
	C176.866272,241.606491 177.758041,241.308929 179.017303,241.102539 
z"/>
<path fill="#1E3799" opacity="1.000000" stroke="none" 
	d="
M225.173859,254.120499 
	C225.195389,253.839066 225.401291,253.502319 225.816986,253.173599 
	C225.803925,253.476151 225.581085,253.770676 225.173859,254.120499 
z"/>
<path fill="#1E3799" opacity="1.000000" stroke="none" 
	d="
M222.952515,258.191895 
	C222.726929,258.024109 222.714233,257.812256 222.854889,257.508301 
	C223.137253,257.625671 223.189636,257.869537 222.952515,258.191895 
z"/>
<path fill="#1E3799" opacity="1.000000" stroke="none" 
	d="
M192.288605,243.965057 
	C192.226425,243.917450 192.379745,243.933075 192.402557,243.964020 
	C192.425354,243.994980 192.350784,244.012665 192.288605,243.965057 
z"/>
<path fill="#1E3799" opacity="1.000000" stroke="none" 
	d="
M228.502106,252.023148 
	C228.480347,252.092743 228.361588,252.034424 228.325836,252.023544 
	C228.290100,252.012665 228.523849,251.953552 228.502106,252.023148 
z"/>
<path fill="#1E3799" opacity="1.000000" stroke="none" 
	d="
M190.093018,242.860245 
	C190.078064,242.788651 190.228607,242.869766 190.247330,242.911133 
	C190.266052,242.952515 190.107971,242.931839 190.093018,242.860245 
z"/>
<path fill="#1E3799" opacity="1.000000" stroke="none" 
	d="
M221.380875,283.927002 
	C221.238388,283.576355 221.429504,283.371368 221.924927,283.247559 
	C221.968765,283.493774 221.797180,283.741760 221.380875,283.927002 
z"/>
<path fill="#1E3799" opacity="1.000000" stroke="none" 
	d="
M220.537994,284.013245 
	C220.505524,283.885803 220.531601,283.835846 220.544281,283.860107 
	C220.556976,283.884369 220.496155,284.260651 220.496155,284.260651 
	C220.496155,284.260651 220.570450,284.140717 220.537994,284.013245 
z"/>
<path fill="#D1E9F8" opacity="1.000000" stroke="none" 
	d="
M177.836212,250.273193 
	C181.097916,250.481476 184.054260,250.870773 187.412735,251.343689 
	C193.055725,255.575790 195.541382,260.574005 193.116425,267.346436 
	C191.085068,273.019592 187.582520,275.706299 180.234802,276.146790 
	C176.550537,274.351135 173.619171,272.612549 170.687805,270.873962 
	C166.145248,261.697174 168.359741,255.089142 177.836212,250.273193 
M184.102142,261.029755 
	C182.321701,261.150421 180.541245,261.271088 178.760788,261.391754 
	C179.038666,263.423920 179.316528,265.456055 179.594406,267.488190 
	C180.361542,267.559174 181.128677,267.630127 181.895828,267.701111 
	C182.711334,265.713623 183.526840,263.726105 184.102142,261.029755 
z"/>
<path fill="#1E3799" opacity="1.000000" stroke="none" 
	d="
M170.537842,271.242371 
	C173.619171,272.612549 176.550537,274.351135 179.837845,276.209717 
	C182.192017,278.134735 184.190247,279.939789 186.188477,281.744812 
	C185.952698,282.222046 185.716919,282.699249 185.481125,283.176483 
	C183.601532,283.568481 181.721924,283.960449 179.561737,284.524231 
	C171.784698,284.107086 165.928787,280.901978 162.269104,273.806213 
	C162.632278,273.698425 163.316223,273.734497 163.471237,274.039459 
	C165.631866,278.289764 167.541153,278.151672 169.325989,273.797882 
	C169.632782,273.049530 170.031601,272.338867 170.537842,271.242371 
z"/>
<path fill="#DB2E1D" opacity="1.000000" stroke="none" 
	d="
M110.279221,242.712952 
	C111.266647,241.497375 112.147491,240.610291 113.055847,239.394653 
	C114.216980,238.541595 115.350616,238.017059 116.791420,237.350403 
	C114.866760,240.834702 113.189835,244.065125 111.283783,247.154175 
	C110.910271,247.759521 109.649910,247.817627 108.413422,248.051636 
	C108.743050,246.330582 109.457840,244.686020 110.279221,242.712952 
z"/>
<path fill="#11B2ED" opacity="1.000000" stroke="none" 
	d="
M184.222244,261.384186 
	C183.526840,263.726105 182.711334,265.713623 181.895828,267.701111 
	C181.128677,267.630127 180.361542,267.559174 179.594406,267.488190 
	C179.316528,265.456055 179.038666,263.423920 178.760803,261.391754 
	C180.541245,261.271088 182.321701,261.150421 184.222244,261.384186 
z"/>
</svg>